<svg xmlns="http://www.w3.org/2000/svg" viewBox="22.0 24.0 156.0 194.0" width="156" height="194">
<path fill="#1E4B36" d="M30.00 82.00C30.00 75.37 35.37 70.00 42.00 70.00L158.00 70.00C164.63 70.00 170.00 75.37 170.00 82.00L170.00 198.00C170.00 204.63 164.63 210.00 158.00 210.00L42.00 210.00C35.37 210.00 30.00 204.63 30.00 198.00Z"/>
<path fill="#1E4B36" d="M64.01 71.65L64.27 67.22Q64.29 66.87 64.35 66.52L65.11 62.16Q65.17 61.82 65.27 61.48L66.54 57.27Q66.64 56.92 66.78 56.59L68.52 52.61Q68.66 52.27 68.85 51.95L71.03 48.25Q71.22 47.93 71.45 47.63L74.04 44.29Q74.28 43.98 74.56 43.70L77.51 40.77Q77.79 40.49 78.11 40.24L81.38 37.77Q81.71 37.52 82.07 37.32L85.59 35.35Q85.97 35.14 86.37 34.99L90.08 33.56Q90.49 33.40 90.92 33.31L94.76 32.44Q95.20 32.34 95.64 32.31L99.56 32.02Q100.00 31.98 100.44 32.02L104.36 32.31Q104.80 32.34 105.24 32.44L109.08 33.31Q109.51 33.40 109.92 33.56L113.63 34.99Q114.03 35.14 114.41 35.35L117.93 37.32Q118.29 37.52 118.62 37.77L121.89 40.24Q122.21 40.49 122.49 40.77L125.44 43.70Q125.72 43.98 125.96 44.29L128.55 47.63Q128.78 47.93 128.97 48.25L131.15 51.95Q131.34 52.27 131.48 52.61L133.22 56.59Q133.36 56.92 133.46 57.27L134.73 61.48Q134.83 61.82 134.89 62.16L135.65 66.52Q135.71 66.87 135.73 67.22L135.99 71.65Q136.13 74.13 134.48 75.99Q132.83 77.85 130.35 77.99Q127.87 78.13 126.01 76.48Q124.15 74.83 124.01 72.35L123.77 68.26L123.13 64.58L122.07 61.05L120.63 57.73L118.82 54.68L116.71 51.94L114.32 49.57L111.71 47.59L108.93 46.03L106.02 44.92L103.03 44.24L100.00 44.02L96.97 44.24L93.98 44.92L91.07 46.03L88.29 47.59L85.68 49.57L83.29 51.94L81.18 54.68L79.37 57.73L77.93 61.05L76.87 64.58L76.23 68.26L75.99 72.35Q75.85 74.83 73.99 76.48Q72.13 78.13 69.65 77.99Q67.17 77.85 65.52 75.99Q63.87 74.13 64.01 71.65Z"/>
<path fill="#D64A2B" d="M92.05 104.17L69.46 109.82Q68.31 110.11 67.15 109.94Q64.69 109.59 63.20 107.60Q61.71 105.61 62.06 103.15L66.06 75.15Q66.27 73.70 67.12 72.51Q68.56 70.49 71.01 70.08Q73.47 69.67 75.49 71.12L100.00 88.63L124.51 71.12Q126.53 69.67 128.99 70.08Q131.44 70.49 132.88 72.51Q133.73 73.70 133.94 75.15L137.94 103.15Q138.29 105.61 136.80 107.60Q135.31 109.59 132.85 109.94Q131.69 110.11 130.54 109.82L107.95 104.17L118.62 130.10Q119.41 132.01 118.62 133.92Q117.82 135.83 115.90 136.62Q113.99 137.41 112.08 136.62Q110.17 135.82 109.38 133.90L100.00 111.13L90.62 133.90Q89.83 135.82 87.92 136.62Q86.01 137.41 84.10 136.62Q82.18 135.83 81.38 133.92Q80.59 132.01 81.38 130.10L92.05 104.17ZM85.94 93.33L76.54 86.62L75.20 96.01ZM114.06 93.33L124.80 96.01L123.46 86.62Z"/>
</svg>